<?xml version="1.0" encoding="UTF-8" standalone="no"?>
<!DOCTYPE svg PUBLIC "-//W3C//DTD SVG 1.1//EN"
 "http://www.w3.org/Graphics/SVG/1.1/DTD/svg11.dtd">
<!-- Generated by graphviz version 2.49.3 (20211023.0002)
 -->
<!-- Pages: 1 -->
<svg width="3010pt" height="1153pt"
 viewBox="0.00 0.00 3010.25 1153.00" xmlns="http://www.w3.org/2000/svg" xmlns:xlink="http://www.w3.org/1999/xlink">
<g id="graph0" class="graph" transform="scale(1 1) rotate(0) translate(4 1149)">
<polygon fill="white" stroke="transparent" points="-4,4 -4,-1149 3006.25,-1149 3006.25,4 -4,4"/>
<g id="clust1" class="cluster">
<title>cluster&#45;nid&#45;02</title>
<polygon fill="none" stroke="#cccccc" points="809.42,-982 809.42,-1052 1230.84,-1052 1230.84,-982 809.42,-982"/>
</g>
<g id="clust2" class="cluster">
<title>cluster&#45;nid&#45;03</title>
<polygon fill="none" stroke="#cccccc" points="809.42,-848 809.42,-918 1230.84,-918 1230.84,-848 809.42,-848"/>
</g>
<g id="clust5" class="cluster">
<title>cluster&#45;nid&#45;06</title>
<polygon fill="none" stroke="#cccccc" points="19.82,-881 19.82,-951 170.18,-951 170.18,-881 19.82,-881"/>
</g>
<g id="clust7" class="cluster">
<title>cluster&#45;nid&#45;08</title>
<polygon fill="none" stroke="#cccccc" points="2186.1,-164 2186.1,-234 2606.2,-234 2606.2,-164 2186.1,-164"/>
</g>
<g id="clust8" class="cluster">
<title>cluster&#45;nid&#45;09</title>
<polygon fill="none" stroke="#cccccc" points="2186.1,-554 2186.1,-624 2606.2,-624 2606.2,-554 2186.1,-554"/>
</g>
<g id="clust10" class="cluster">
<title>cluster&#45;nid&#45;0b</title>
<polygon fill="none" stroke="#cccccc" points="763,-305 763,-623 1246.3,-623 1246.3,-305 763,-305"/>
</g>
<g id="clust11" class="cluster">
<title>cluster&#45;nid&#45;0c</title>
<polygon fill="none" stroke="#cccccc" points="1446.3,-922 1446.3,-1048 1929.6,-1048 1929.6,-922 1446.3,-922"/>
</g>
<g id="clust12" class="cluster">
<title>cluster&#45;nid&#45;0d</title>
<polygon fill="none" stroke="#cccccc" points="1446.3,-788 1446.3,-914 1929.6,-914 1929.6,-788 1446.3,-788"/>
</g>
<g id="clust14" class="cluster">
<title>cluster&#45;nid&#45;0f</title>
<polygon fill="none" stroke="#cccccc" points="2129.91,-744 2129.91,-822 2610.25,-822 2610.25,-744 2129.91,-744"/>
</g>
<g id="clust16" class="cluster">
<title>cluster&#45;nid&#45;11</title>
<polygon fill="none" stroke="#cccccc" points="437.5,-1060 437.5,-1130 898.96,-1130 898.96,-1060 437.5,-1060"/>
</g>
<g id="clust18" class="cluster">
<title>cluster&#45;nid&#45;12&#45;out</title>
<polygon fill="none" stroke="#cccccc" points="8,-1053 8,-1137 182,-1137 182,-1053 8,-1053"/>
</g>
<g id="clust20" class="cluster">
<title>cluster&#45;nid&#45;14&#45;in</title>
<polygon fill="none" stroke="#cccccc" points="2129.6,-1014 2129.6,-1098 2312.6,-1098 2312.6,-1014 2129.6,-1014"/>
</g>
<g id="clust24" class="cluster">
<title>cluster&#45;nid&#45;17&#45;in</title>
<polygon fill="none" stroke="#cccccc" points="2810.25,-741 2810.25,-825 2994.25,-825 2994.25,-741 2810.25,-741"/>
</g>
<g id="clust27" class="cluster">
<title>cluster&#45;nid&#45;18&#45;out</title>
<polygon fill="none" stroke="#cccccc" points="382,-167 382,-251 563,-251 563,-167 382,-167"/>
</g>
<g id="clust29" class="cluster">
<title>cluster&#45;nid&#45;19&#45;out</title>
<polygon fill="none" stroke="#cccccc" points="394.5,-259 394.5,-343 550.5,-343 550.5,-259 394.5,-259"/>
</g>
<g id="clust31" class="cluster">
<title>cluster&#45;nid&#45;1a&#45;out</title>
<polygon fill="none" stroke="#cccccc" points="382,-685 382,-769 563,-769 563,-685 382,-685"/>
</g>
<g id="clust32" class="cluster">
<title>cluster&#45;nid&#45;1b&#45;in</title>
<polygon fill="none" stroke="#cccccc" points="2130.6,-922 2130.6,-1006 2596.43,-1006 2596.43,-922 2130.6,-922"/>
</g>
<g id="clust33" class="cluster">
<title>cluster&#45;nid&#45;1b&#45;out</title>
<polygon fill="none" stroke="#cccccc" points="60,-593 60,-677 563,-677 563,-593 60,-593"/>
</g>
<g id="clust36" class="cluster">
<title>cluster&#45;nid&#45;1d&#45;out</title>
<polygon fill="none" stroke="#cccccc" points="390,-75 390,-159 555,-159 555,-75 390,-75"/>
</g>
<g id="clust37" class="cluster">
<title>cluster&#45;nid&#45;1e&#45;in</title>
<polygon fill="none" stroke="#cccccc" points="382,-874 382,-958 563,-958 563,-874 382,-874"/>
</g>
<g id="clust41" class="cluster">
<title>cluster&#45;nid&#45;21&#45;in</title>
<polygon fill="none" stroke="#cccccc" points="2133.6,-830 2133.6,-914 2308.6,-914 2308.6,-830 2133.6,-830"/>
</g>
<g id="clust43" class="cluster">
<title>cluster&#45;nid&#45;22</title>
<polygon fill="none" stroke="#cccccc" points="1446.3,-398 1446.3,-780 1929.6,-780 1929.6,-398 1446.3,-398"/>
</g>
<g id="clust44" class="cluster">
<title>cluster&#45;nid&#45;23</title>
<polygon fill="none" stroke="#cccccc" points="1446.3,-8 1446.3,-390 1929.6,-390 1929.6,-8 1446.3,-8"/>
</g>
<!-- nid&#45;02 -->
<g id="node1" class="node">
<title>nid&#45;02</title>
<ellipse fill="none" stroke="blue" cx="854.19" cy="-1017" rx="36.54" ry="26.74"/>
<text text-anchor="middle" x="854.19" y="-1020.8" font-family="Times,serif" font-size="14.00">0x02</text>
<text text-anchor="middle" x="854.19" y="-1005.8" font-family="Times,serif" font-size="14.00">Stereo</text>
</g>
<!-- nid&#45;02&#45;ampout -->
<g id="node2" class="node">
<title>nid&#45;02&#45;ampout</title>
<polygon fill="none" stroke="#0000ff" points="1222.84,-1017 1182.34,-1035 1182.34,-999 1222.84,-1017"/>
</g>
<!-- nid&#45;02&#45;&gt;nid&#45;02&#45;ampout -->
<g id="edge1" class="edge">
<title>nid&#45;02&#45;&gt;nid&#45;02&#45;ampout</title>
<path fill="none" stroke="#0000ff" d="M891.22,-1017C963.52,-1017 1123.91,-1017 1177.23,-1017"/>
<polygon fill="#0000ff" stroke="#0000ff" points="1177.34,-1018.75 1182.34,-1017 1177.34,-1015.25 1177.34,-1018.75"/>
</g>
<!-- nid&#45;0c&#45;ampin&#45;2 -->
<g id="node24" class="node">
<title>nid&#45;0c&#45;ampin&#45;2</title>
<polygon fill="none" stroke="#0000ff" points="1620.88,-1017 1495.8,-1040 1495.8,-994 1620.88,-1017"/>
<text text-anchor="middle" x="1537.49" y="-1013.3" font-family="Times,serif" font-size="14.00">0 (0x02)</text>
</g>
<!-- nid&#45;02&#45;ampout&#45;&gt;nid&#45;0c&#45;ampin&#45;2 -->
<g id="edge19" class="edge">
<title>nid&#45;02&#45;ampout&#45;&gt;nid&#45;0c&#45;ampin&#45;2</title>
<path fill="none" stroke="#333333" d="M1222.93,-1017C1278.97,-1017 1411.71,-1017 1485.25,-1017"/>
<polygon fill="#333333" stroke="#333333" points="1485.65,-1020.5 1495.65,-1017 1485.65,-1013.5 1485.65,-1020.5"/>
</g>
<!-- nid&#45;03 -->
<g id="node3" class="node">
<title>nid&#45;03</title>
<ellipse fill="none" stroke="blue" cx="854.19" cy="-883" rx="36.54" ry="26.74"/>
<text text-anchor="middle" x="854.19" y="-886.8" font-family="Times,serif" font-size="14.00">0x03</text>
<text text-anchor="middle" x="854.19" y="-871.8" font-family="Times,serif" font-size="14.00">Stereo</text>
</g>
<!-- nid&#45;03&#45;ampout -->
<g id="node4" class="node">
<title>nid&#45;03&#45;ampout</title>
<polygon fill="none" stroke="#0000ff" points="1222.84,-883 1182.34,-901 1182.34,-865 1222.84,-883"/>
</g>
<!-- nid&#45;03&#45;&gt;nid&#45;03&#45;ampout -->
<g id="edge2" class="edge">
<title>nid&#45;03&#45;&gt;nid&#45;03&#45;ampout</title>
<path fill="none" stroke="#0000ff" d="M891.22,-883C963.52,-883 1123.91,-883 1177.23,-883"/>
<polygon fill="#0000ff" stroke="#0000ff" points="1177.34,-884.75 1182.34,-883 1177.34,-881.25 1177.34,-884.75"/>
</g>
<!-- nid&#45;0d&#45;ampin&#45;3 -->
<g id="node27" class="node">
<title>nid&#45;0d&#45;ampin&#45;3</title>
<polygon fill="none" stroke="#0000ff" points="1620.88,-883 1495.8,-906 1495.8,-860 1620.88,-883"/>
<text text-anchor="middle" x="1537.49" y="-879.3" font-family="Times,serif" font-size="14.00">0 (0x03)</text>
</g>
<!-- nid&#45;03&#45;ampout&#45;&gt;nid&#45;0d&#45;ampin&#45;3 -->
<g id="edge23" class="edge">
<title>nid&#45;03&#45;ampout&#45;&gt;nid&#45;0d&#45;ampin&#45;3</title>
<path fill="none" stroke="#333333" d="M1222.93,-883C1278.97,-883 1411.71,-883 1485.25,-883"/>
<polygon fill="#333333" stroke="#333333" points="1485.65,-886.5 1495.65,-883 1485.65,-879.5 1485.65,-886.5"/>
</g>
<!-- nid&#45;06 -->
<g id="node5" class="node">
<title>nid&#45;06</title>
<ellipse fill="none" stroke="blue" cx="95" cy="-916" rx="67.35" ry="26.74"/>
<text text-anchor="middle" x="95" y="-919.8" font-family="Times,serif" font-size="14.00">0x06</text>
<text text-anchor="middle" x="95" y="-904.8" font-family="Times,serif" font-size="14.00">Stereo Digital</text>
</g>
<!-- nid&#45;1e&#45;in -->
<g id="node39" class="node">
<title>nid&#45;1e&#45;in</title>
<polygon fill="none" stroke="green" points="555,-950 390,-950 390,-882 555,-882 555,-950"/>
<text text-anchor="middle" x="472.5" y="-934.8" font-family="Times,serif" font-size="14.00">0x1e</text>
<text text-anchor="middle" x="472.5" y="-919.8" font-family="Times,serif" font-size="14.00">[N/A] Speaker at Ext Rear</text>
<text text-anchor="middle" x="472.5" y="-904.8" font-family="Times,serif" font-size="14.00">Stereo Digital</text>
<text text-anchor="middle" x="472.5" y="-889.8" font-family="Times,serif" font-size="14.00">OUT Detect</text>
</g>
<!-- nid&#45;06&#45;&gt;nid&#45;1e&#45;in -->
<g id="edge35" class="edge">
<title>nid&#45;06&#45;&gt;nid&#45;1e&#45;in</title>
<path fill="none" stroke="#333333" d="M162.27,-916C222.65,-916 312.4,-916 379.68,-916"/>
<polygon fill="#333333" stroke="#333333" points="379.86,-919.5 389.86,-916 379.86,-912.5 379.86,-919.5"/>
</g>
<!-- nid&#45;08 -->
<g id="node6" class="node">
<title>nid&#45;08</title>
<ellipse fill="none" stroke="red" cx="2561.43" cy="-199" rx="36.54" ry="26.74"/>
<text text-anchor="middle" x="2561.43" y="-202.8" font-family="Times,serif" font-size="14.00">0x08</text>
<text text-anchor="middle" x="2561.43" y="-187.8" font-family="Times,serif" font-size="14.00">Stereo</text>
</g>
<!-- nid&#45;08&#45;ampin -->
<g id="node7" class="node">
<title>nid&#45;08&#45;ampin</title>
<polygon fill="none" stroke="#3232f1" points="2248.1,-199 2207.6,-217 2207.6,-181 2248.1,-199"/>
</g>
<!-- nid&#45;08&#45;ampin&#45;&gt;nid&#45;08 -->
<g id="edge3" class="edge">
<title>nid&#45;08&#45;ampin&#45;&gt;nid&#45;08</title>
<path fill="none" stroke="#3232f1" d="M2248.37,-199C2306.93,-199 2448.56,-199 2519.09,-199"/>
<polygon fill="#3232f1" stroke="#3232f1" points="2519.45,-200.75 2524.45,-199 2519.45,-197.25 2519.45,-200.75"/>
</g>
<!-- nid&#45;23 -->
<g id="node8" class="node">
<title>nid&#45;23</title>
<polygon fill="none" stroke="black" points="1921.56,-199 1900.35,-230.05 1857.94,-230.05 1836.73,-199 1857.94,-167.95 1900.35,-167.95 1921.56,-199"/>
<text text-anchor="middle" x="1879.14" y="-202.8" font-family="Times,serif" font-size="14.00">0x23</text>
<text text-anchor="middle" x="1879.14" y="-187.8" font-family="Times,serif" font-size="14.00">Stereo</text>
</g>
<!-- nid&#45;23&#45;&gt;nid&#45;08&#45;ampin -->
<g id="edge4" class="edge">
<title>nid&#45;23&#45;&gt;nid&#45;08&#45;ampin</title>
<path fill="none" stroke="#333333" d="M1921.83,-199C1994.3,-199 2141.16,-199 2197.45,-199"/>
<polygon fill="#333333" stroke="#333333" points="2197.45,-202.5 2207.45,-199 2197.45,-195.5 2197.45,-202.5"/>
</g>
<!-- nid&#45;09 -->
<g id="node9" class="node">
<title>nid&#45;09</title>
<ellipse fill="none" stroke="red" cx="2561.43" cy="-589" rx="36.54" ry="26.74"/>
<text text-anchor="middle" x="2561.43" y="-592.8" font-family="Times,serif" font-size="14.00">0x09</text>
<text text-anchor="middle" x="2561.43" y="-577.8" font-family="Times,serif" font-size="14.00">Stereo</text>
</g>
<!-- nid&#45;09&#45;ampin -->
<g id="node10" class="node">
<title>nid&#45;09&#45;ampin</title>
<polygon fill="none" stroke="#c8c8c8" points="2248.1,-589 2207.6,-607 2207.6,-571 2248.1,-589"/>
</g>
<!-- nid&#45;09&#45;ampin&#45;&gt;nid&#45;09 -->
<g id="edge5" class="edge">
<title>nid&#45;09&#45;ampin&#45;&gt;nid&#45;09</title>
<path fill="none" stroke="#c8c8c8" d="M2248.37,-589C2306.93,-589 2448.56,-589 2519.09,-589"/>
<polygon fill="#c8c8c8" stroke="#c8c8c8" points="2519.45,-590.75 2524.45,-589 2519.45,-587.25 2519.45,-590.75"/>
</g>
<!-- nid&#45;22 -->
<g id="node11" class="node">
<title>nid&#45;22</title>
<polygon fill="none" stroke="black" points="1921.56,-589 1900.35,-620.05 1857.94,-620.05 1836.73,-589 1857.94,-557.95 1900.35,-557.95 1921.56,-589"/>
<text text-anchor="middle" x="1879.14" y="-592.8" font-family="Times,serif" font-size="14.00">0x22</text>
<text text-anchor="middle" x="1879.14" y="-577.8" font-family="Times,serif" font-size="14.00">Stereo</text>
</g>
<!-- nid&#45;22&#45;&gt;nid&#45;09&#45;ampin -->
<g id="edge6" class="edge">
<title>nid&#45;22&#45;&gt;nid&#45;09&#45;ampin</title>
<path fill="none" stroke="#333333" d="M1921.83,-589C1994.3,-589 2141.16,-589 2197.45,-589"/>
<polygon fill="#333333" stroke="#333333" points="2197.45,-592.5 2207.45,-589 2197.45,-585.5 2197.45,-592.5"/>
</g>
<!-- nid&#45;0b -->
<g id="node12" class="node">
<title>nid&#45;0b</title>
<polygon fill="none" stroke="black" points="1238.26,-496 1217.05,-527.05 1174.64,-527.05 1153.43,-496 1174.64,-464.95 1217.05,-464.95 1238.26,-496"/>
<text text-anchor="middle" x="1195.84" y="-499.8" font-family="Times,serif" font-size="14.00">0x0b</text>
<text text-anchor="middle" x="1195.84" y="-484.8" font-family="Times,serif" font-size="14.00">Stereo</text>
</g>
<!-- nid&#45;0c&#45;ampin&#45;11 -->
<g id="node25" class="node">
<title>nid&#45;0c&#45;ampin&#45;11</title>
<polygon fill="none" stroke="#c8c8c8" points="1620.88,-953 1495.8,-976 1495.8,-930 1620.88,-953"/>
<text text-anchor="middle" x="1537.49" y="-949.3" font-family="Times,serif" font-size="14.00">1 (0x0b)</text>
</g>
<!-- nid&#45;0b&#45;&gt;nid&#45;0c&#45;ampin&#45;11 -->
<g id="edge20" class="edge">
<title>nid&#45;0b&#45;&gt;nid&#45;0c&#45;ampin&#45;11</title>
<path fill="none" stroke="#333333" d="M1207.15,-527.26C1234.11,-604.4 1313.91,-805.68 1446.3,-918 1457.75,-927.71 1472.2,-934.91 1486.15,-940.16"/>
<polygon fill="#333333" stroke="#333333" points="1485.1,-943.5 1495.69,-943.5 1487.41,-936.89 1485.1,-943.5"/>
</g>
<!-- nid&#45;0d&#45;ampin&#45;11 -->
<g id="node28" class="node">
<title>nid&#45;0d&#45;ampin&#45;11</title>
<polygon fill="none" stroke="#c8c8c8" points="1620.88,-819 1495.8,-842 1495.8,-796 1620.88,-819"/>
<text text-anchor="middle" x="1537.49" y="-815.3" font-family="Times,serif" font-size="14.00">1 (0x0b)</text>
</g>
<!-- nid&#45;0b&#45;&gt;nid&#45;0d&#45;ampin&#45;11 -->
<g id="edge24" class="edge">
<title>nid&#45;0b&#45;&gt;nid&#45;0d&#45;ampin&#45;11</title>
<path fill="none" stroke="#333333" d="M1216.35,-527.29C1254.06,-585.44 1342.46,-710.87 1446.3,-784 1458.24,-792.4 1472.46,-799.14 1486.05,-804.36"/>
<polygon fill="#333333" stroke="#333333" points="1485.19,-807.78 1495.78,-807.9 1487.58,-801.2 1485.19,-807.78"/>
</g>
<!-- nid&#45;22&#45;ampin&#45;11 -->
<g id="node46" class="node">
<title>nid&#45;22&#45;ampin&#45;11</title>
<polygon fill="none" stroke="#c8c8c8" points="1620.88,-621 1495.8,-644 1495.8,-598 1620.88,-621"/>
<text text-anchor="middle" x="1537.49" y="-617.3" font-family="Times,serif" font-size="14.00">5 (0x0b)</text>
</g>
<!-- nid&#45;0b&#45;&gt;nid&#45;22&#45;ampin&#45;11 -->
<g id="edge49" class="edge">
<title>nid&#45;0b&#45;&gt;nid&#45;22&#45;ampin&#45;11</title>
<path fill="none" stroke="#333333" d="M1229.87,-508.5C1277.57,-526.52 1368.55,-560.72 1446.3,-589 1459.12,-593.66 1472.99,-598.62 1485.92,-603.21"/>
<polygon fill="#333333" stroke="#333333" points="1484.99,-606.6 1495.59,-606.64 1487.33,-600 1484.99,-606.6"/>
</g>
<!-- nid&#45;23&#45;ampin&#45;11 -->
<g id="node52" class="node">
<title>nid&#45;23&#45;ampin&#45;11</title>
<polygon fill="none" stroke="#c8c8c8" points="1620.88,-231 1495.8,-254 1495.8,-208 1620.88,-231"/>
<text text-anchor="middle" x="1537.49" y="-227.3" font-family="Times,serif" font-size="14.00">5 (0x0b)</text>
</g>
<!-- nid&#45;0b&#45;&gt;nid&#45;23&#45;ampin&#45;11 -->
<g id="edge61" class="edge">
<title>nid&#45;0b&#45;&gt;nid&#45;23&#45;ampin&#45;11</title>
<path fill="none" stroke="#333333" d="M1219.49,-468.43C1260.23,-420.45 1350.59,-321.17 1446.3,-263 1458.41,-255.64 1472.46,-249.63 1485.82,-244.89"/>
<polygon fill="#333333" stroke="#333333" points="1487.03,-248.18 1495.39,-241.66 1484.79,-241.54 1487.03,-248.18"/>
</g>
<!-- nid&#45;0b&#45;ampin&#45;24 -->
<g id="node13" class="node">
<title>nid&#45;0b&#45;ampin&#45;24</title>
<polygon fill="none" stroke="#c8c8c8" points="937.58,-400 812.5,-423 812.5,-377 937.58,-400"/>
<text text-anchor="middle" x="854.19" y="-396.3" font-family="Times,serif" font-size="14.00">0 (0x18)</text>
</g>
<!-- nid&#45;0b&#45;ampin&#45;24&#45;&gt;nid&#45;0b -->
<g id="edge7" class="edge">
<title>nid&#45;0b&#45;ampin&#45;24&#45;&gt;nid&#45;0b</title>
<path fill="none" stroke="#c8c8c8" d="M887.76,-409.2C950.3,-426.88 1087.04,-465.53 1154.94,-484.72"/>
<polygon fill="#c8c8c8" stroke="#c8c8c8" points="1154.82,-486.51 1160.1,-486.18 1155.77,-483.14 1154.82,-486.51"/>
</g>
<!-- nid&#45;0b&#45;ampin&#45;25 -->
<g id="node14" class="node">
<title>nid&#45;0b&#45;ampin&#45;25</title>
<polygon fill="none" stroke="#c8c8c8" points="937.58,-464 812.5,-487 812.5,-441 937.58,-464"/>
<text text-anchor="middle" x="854.19" y="-460.3" font-family="Times,serif" font-size="14.00">1 (0x19)</text>
</g>
<!-- nid&#45;0b&#45;ampin&#45;25&#45;&gt;nid&#45;0b -->
<g id="edge8" class="edge">
<title>nid&#45;0b&#45;ampin&#45;25&#45;&gt;nid&#45;0b</title>
<path fill="none" stroke="#c8c8c8" d="M909.76,-469.14C976.7,-475.45 1088.87,-486.02 1150.67,-491.84"/>
<polygon fill="#c8c8c8" stroke="#c8c8c8" points="1150.62,-493.59 1155.76,-492.32 1150.95,-490.11 1150.62,-493.59"/>
</g>
<!-- nid&#45;0b&#45;ampin&#45;26 -->
<g id="node15" class="node">
<title>nid&#45;0b&#45;ampin&#45;26</title>
<polygon fill="none" stroke="#c8c8c8" points="937.58,-592 812.5,-615 812.5,-569 937.58,-592"/>
<text text-anchor="middle" x="854.19" y="-588.3" font-family="Times,serif" font-size="14.00">2 (0x1a)</text>
</g>
<!-- nid&#45;0b&#45;ampin&#45;26&#45;&gt;nid&#45;0b -->
<g id="edge9" class="edge">
<title>nid&#45;0b&#45;ampin&#45;26&#45;&gt;nid&#45;0b</title>
<path fill="none" stroke="#c8c8c8" d="M887.76,-582.8C950.3,-565.12 1087.04,-526.47 1154.94,-507.28"/>
<polygon fill="#c8c8c8" stroke="#c8c8c8" points="1155.77,-508.86 1160.1,-505.82 1154.82,-505.49 1155.77,-508.86"/>
</g>
<!-- nid&#45;0b&#45;ampin&#45;27 -->
<g id="node16" class="node">
<title>nid&#45;0b&#45;ampin&#45;27</title>
<polygon fill="none" stroke="#c8c8c8" points="937.58,-528 812.5,-551 812.5,-505 937.58,-528"/>
<text text-anchor="middle" x="854.19" y="-524.3" font-family="Times,serif" font-size="14.00">3 (0x1b)</text>
</g>
<!-- nid&#45;0b&#45;ampin&#45;27&#45;&gt;nid&#45;0b -->
<g id="edge10" class="edge">
<title>nid&#45;0b&#45;ampin&#45;27&#45;&gt;nid&#45;0b</title>
<path fill="none" stroke="#c8c8c8" d="M909.76,-522.86C976.7,-516.55 1088.87,-505.98 1150.67,-500.16"/>
<polygon fill="#c8c8c8" stroke="#c8c8c8" points="1150.95,-501.89 1155.76,-499.68 1150.62,-498.41 1150.95,-501.89"/>
</g>
<!-- nid&#45;0b&#45;ampin&#45;29 -->
<g id="node17" class="node">
<title>nid&#45;0b&#45;ampin&#45;29</title>
<polygon fill="none" stroke="#c8c8c8" points="937.58,-336 812.5,-359 812.5,-313 937.58,-336"/>
<text text-anchor="middle" x="854.19" y="-332.3" font-family="Times,serif" font-size="14.00">4 (0x1d)</text>
</g>
<!-- nid&#45;0b&#45;ampin&#45;29&#45;&gt;nid&#45;0b -->
<g id="edge11" class="edge">
<title>nid&#45;0b&#45;ampin&#45;29&#45;&gt;nid&#45;0b</title>
<path fill="none" stroke="#c8c8c8" d="M883.22,-346.2C899.23,-352.2 919.6,-360.14 937.39,-368 1018.32,-403.79 1110.63,-451.39 1159.74,-477.29"/>
<polygon fill="#c8c8c8" stroke="#c8c8c8" points="1159.12,-478.94 1164.36,-479.72 1160.75,-475.84 1159.12,-478.94"/>
</g>
<!-- nid&#45;18&#45;out -->
<g id="node18" class="node">
<title>nid&#45;18&#45;out</title>
<polygon fill="none" stroke="green" points="555,-243 390,-243 390,-175 555,-175 555,-243"/>
<text text-anchor="middle" x="472.5" y="-227.8" font-family="Times,serif" font-size="14.00">0x18</text>
<text text-anchor="middle" x="472.5" y="-212.8" font-family="Times,serif" font-size="14.00">[N/A] Speaker at Ext Rear</text>
<text text-anchor="middle" x="472.5" y="-197.8" font-family="Times,serif" font-size="14.00">Stereo</text>
<text text-anchor="middle" x="472.5" y="-182.8" font-family="Times,serif" font-size="14.00">IN Detect</text>
</g>
<!-- nid&#45;18&#45;out&#45;&gt;nid&#45;0b&#45;ampin&#45;24 -->
<g id="edge12" class="edge">
<title>nid&#45;18&#45;out&#45;&gt;nid&#45;0b&#45;ampin&#45;24</title>
<path fill="none" stroke="#333333" d="M540.61,-243.13C548.18,-247.09 555.77,-251.1 563,-255 652.86,-303.46 670.1,-325.66 763,-368 775.53,-373.71 789.4,-379.08 802.43,-383.72"/>
<polygon fill="#333333" stroke="#333333" points="801.6,-387.14 812.19,-387.13 803.9,-380.53 801.6,-387.14"/>
</g>
<!-- nid&#45;22&#45;ampin&#45;24 -->
<g id="node41" class="node">
<title>nid&#45;22&#45;ampin&#45;24</title>
<polygon fill="none" stroke="#c8c8c8" points="1620.88,-493 1495.8,-516 1495.8,-470 1620.88,-493"/>
<text text-anchor="middle" x="1537.49" y="-489.3" font-family="Times,serif" font-size="14.00">0 (0x18)</text>
</g>
<!-- nid&#45;18&#45;out&#45;&gt;nid&#45;22&#45;ampin&#45;24 -->
<g id="edge44" class="edge">
<title>nid&#45;18&#45;out&#45;&gt;nid&#45;22&#45;ampin&#45;24</title>
<path fill="none" stroke="#333333" d="M555.07,-198.98C700.88,-184.63 1012.8,-170.32 1246.3,-274 1357.52,-323.38 1342.33,-397.77 1446.3,-461 1458.41,-468.36 1472.46,-474.37 1485.82,-479.11"/>
<polygon fill="#333333" stroke="#333333" points="1484.79,-482.46 1495.38,-482.34 1487.03,-475.83 1484.79,-482.46"/>
</g>
<!-- nid&#45;23&#45;ampin&#45;24 -->
<g id="node47" class="node">
<title>nid&#45;23&#45;ampin&#45;24</title>
<polygon fill="none" stroke="#c8c8c8" points="1620.88,-103 1495.8,-126 1495.8,-80 1620.88,-103"/>
<text text-anchor="middle" x="1537.49" y="-99.3" font-family="Times,serif" font-size="14.00">0 (0x18)</text>
</g>
<!-- nid&#45;18&#45;out&#45;&gt;nid&#45;23&#45;ampin&#45;24 -->
<g id="edge56" class="edge">
<title>nid&#45;18&#45;out&#45;&gt;nid&#45;23&#45;ampin&#45;24</title>
<path fill="none" stroke="#333333" d="M555.15,-200.86C764.31,-180 1314.91,-125.1 1485.42,-108.09"/>
<polygon fill="#333333" stroke="#333333" points="1486.02,-111.55 1495.62,-107.08 1485.32,-104.59 1486.02,-111.55"/>
</g>
<!-- nid&#45;19&#45;out -->
<g id="node19" class="node">
<title>nid&#45;19&#45;out</title>
<polygon fill="none" stroke="green" points="542.5,-335 402.5,-335 402.5,-267 542.5,-267 542.5,-335"/>
<text text-anchor="middle" x="472.5" y="-319.8" font-family="Times,serif" font-size="14.00">0x19</text>
<text text-anchor="middle" x="472.5" y="-304.8" font-family="Times,serif" font-size="14.00">[Jack] Mic at Ext Left</text>
<text text-anchor="middle" x="472.5" y="-289.8" font-family="Times,serif" font-size="14.00">Stereo</text>
<text text-anchor="middle" x="472.5" y="-274.8" font-family="Times,serif" font-size="14.00">IN Detect</text>
</g>
<!-- nid&#45;19&#45;out&#45;&gt;nid&#45;0b&#45;ampin&#45;25 -->
<g id="edge13" class="edge">
<title>nid&#45;19&#45;out&#45;&gt;nid&#45;0b&#45;ampin&#45;25</title>
<path fill="none" stroke="#333333" d="M542.7,-334.29C600.91,-361.82 686.63,-401.24 763,-432 775.65,-437.1 789.46,-442.21 802.38,-446.81"/>
<polygon fill="#333333" stroke="#333333" points="801.47,-450.2 812.06,-450.22 803.79,-443.6 801.47,-450.2"/>
</g>
<!-- nid&#45;22&#45;ampin&#45;25 -->
<g id="node42" class="node">
<title>nid&#45;22&#45;ampin&#45;25</title>
<polygon fill="none" stroke="#c8c8c8" points="1620.88,-557 1495.8,-580 1495.8,-534 1620.88,-557"/>
<text text-anchor="middle" x="1537.49" y="-553.3" font-family="Times,serif" font-size="14.00">1 (0x19)</text>
</g>
<!-- nid&#45;19&#45;out&#45;&gt;nid&#45;22&#45;ampin&#45;25 -->
<g id="edge45" class="edge">
<title>nid&#45;19&#45;out&#45;&gt;nid&#45;22&#45;ampin&#45;25</title>
<path fill="none" stroke="#333333" d="M542.56,-293.9C707.88,-278.04 1121.86,-245.28 1246.3,-301 1368.11,-355.54 1335.51,-450.59 1446.3,-525 1458.18,-532.98 1472.27,-539.21 1485.74,-543.96"/>
<polygon fill="#333333" stroke="#333333" points="1484.8,-547.34 1495.4,-547.17 1487.01,-540.7 1484.8,-547.34"/>
</g>
<!-- nid&#45;23&#45;ampin&#45;25 -->
<g id="node48" class="node">
<title>nid&#45;23&#45;ampin&#45;25</title>
<polygon fill="none" stroke="#c8c8c8" points="1620.88,-167 1495.8,-190 1495.8,-144 1620.88,-167"/>
<text text-anchor="middle" x="1537.49" y="-163.3" font-family="Times,serif" font-size="14.00">1 (0x19)</text>
</g>
<!-- nid&#45;19&#45;out&#45;&gt;nid&#45;23&#45;ampin&#45;25 -->
<g id="edge57" class="edge">
<title>nid&#45;19&#45;out&#45;&gt;nid&#45;23&#45;ampin&#45;25</title>
<path fill="none" stroke="#333333" d="M542.84,-292.26C741.83,-267.17 1311.63,-195.35 1485.5,-173.43"/>
<polygon fill="#333333" stroke="#333333" points="1486.17,-176.87 1495.65,-172.15 1485.29,-169.93 1486.17,-176.87"/>
</g>
<!-- nid&#45;1a&#45;out -->
<g id="node20" class="node">
<title>nid&#45;1a&#45;out</title>
<polygon fill="none" stroke="green" points="555,-761 390,-761 390,-693 555,-693 555,-761"/>
<text text-anchor="middle" x="472.5" y="-745.8" font-family="Times,serif" font-size="14.00">0x1a</text>
<text text-anchor="middle" x="472.5" y="-730.8" font-family="Times,serif" font-size="14.00">[N/A] Speaker at Ext Rear</text>
<text text-anchor="middle" x="472.5" y="-715.8" font-family="Times,serif" font-size="14.00">Stereo</text>
<text text-anchor="middle" x="472.5" y="-700.8" font-family="Times,serif" font-size="14.00">IN Detect</text>
</g>
<!-- nid&#45;1a&#45;out&#45;&gt;nid&#45;0b&#45;ampin&#45;26 -->
<g id="edge14" class="edge">
<title>nid&#45;1a&#45;out&#45;&gt;nid&#45;0b&#45;ampin&#45;26</title>
<path fill="none" stroke="#333333" d="M555.42,-697.87C630.54,-671.17 739.41,-632.45 802.59,-609.99"/>
<polygon fill="#333333" stroke="#333333" points="804.07,-613.18 812.32,-606.53 801.73,-606.58 804.07,-613.18"/>
</g>
<!-- nid&#45;22&#45;ampin&#45;26 -->
<g id="node43" class="node">
<title>nid&#45;22&#45;ampin&#45;26</title>
<polygon fill="none" stroke="#c8c8c8" points="1620.88,-749 1495.8,-772 1495.8,-726 1620.88,-749"/>
<text text-anchor="middle" x="1537.49" y="-745.3" font-family="Times,serif" font-size="14.00">2 (0x1a)</text>
</g>
<!-- nid&#45;1a&#45;out&#45;&gt;nid&#45;22&#45;ampin&#45;26 -->
<g id="edge46" class="edge">
<title>nid&#45;1a&#45;out&#45;&gt;nid&#45;22&#45;ampin&#45;26</title>
<path fill="none" stroke="#333333" d="M555.23,-728.69C613.22,-729.9 692.89,-731.55 763,-733 1035.06,-738.63 1360.94,-745.37 1485.07,-747.94"/>
<polygon fill="#333333" stroke="#333333" points="1485.33,-751.44 1495.4,-748.15 1485.48,-744.44 1485.33,-751.44"/>
</g>
<!-- nid&#45;23&#45;ampin&#45;26 -->
<g id="node49" class="node">
<title>nid&#45;23&#45;ampin&#45;26</title>
<polygon fill="none" stroke="#c8c8c8" points="1620.88,-359 1495.8,-382 1495.8,-336 1620.88,-359"/>
<text text-anchor="middle" x="1537.49" y="-355.3" font-family="Times,serif" font-size="14.00">2 (0x1a)</text>
</g>
<!-- nid&#45;1a&#45;out&#45;&gt;nid&#45;23&#45;ampin&#45;26 -->
<g id="edge58" class="edge">
<title>nid&#45;1a&#45;out&#45;&gt;nid&#45;23&#45;ampin&#45;26</title>
<path fill="none" stroke="#333333" d="M555.2,-726.6C728.98,-724.47 1129.01,-712.51 1246.3,-648 1372.2,-578.76 1330.79,-479.46 1446.3,-394 1458.04,-385.32 1472.2,-378.5 1485.79,-373.27"/>
<polygon fill="#333333" stroke="#333333" points="1487.32,-376.44 1495.54,-369.75 1484.94,-369.86 1487.32,-376.44"/>
</g>
<!-- nid&#45;1b&#45;out -->
<g id="node21" class="node">
<title>nid&#45;1b&#45;out</title>
<polygon fill="none" stroke="green" points="555,-669 390,-669 390,-601 555,-601 555,-669"/>
<text text-anchor="middle" x="472.5" y="-653.8" font-family="Times,serif" font-size="14.00">0x1b</text>
<text text-anchor="middle" x="472.5" y="-638.8" font-family="Times,serif" font-size="14.00">[N/A] Speaker at Ext Rear</text>
<text text-anchor="middle" x="472.5" y="-623.8" font-family="Times,serif" font-size="14.00">Stereo</text>
<text text-anchor="middle" x="472.5" y="-608.8" font-family="Times,serif" font-size="14.00">IN OUT HP Detect</text>
</g>
<!-- nid&#45;1b&#45;out&#45;&gt;nid&#45;0b&#45;ampin&#45;27 -->
<g id="edge15" class="edge">
<title>nid&#45;1b&#45;out&#45;&gt;nid&#45;0b&#45;ampin&#45;27</title>
<path fill="none" stroke="#333333" d="M555.42,-611.91C630.54,-590.75 739.41,-560.06 802.59,-542.26"/>
<polygon fill="#333333" stroke="#333333" points="803.65,-545.6 812.32,-539.52 801.75,-538.86 803.65,-545.6"/>
</g>
<!-- nid&#45;22&#45;ampin&#45;27 -->
<g id="node44" class="node">
<title>nid&#45;22&#45;ampin&#45;27</title>
<polygon fill="none" stroke="#c8c8c8" points="1620.88,-685 1495.8,-708 1495.8,-662 1620.88,-685"/>
<text text-anchor="middle" x="1537.49" y="-681.3" font-family="Times,serif" font-size="14.00">3 (0x1b)</text>
</g>
<!-- nid&#45;1b&#45;out&#45;&gt;nid&#45;22&#45;ampin&#45;27 -->
<g id="edge47" class="edge">
<title>nid&#45;1b&#45;out&#45;&gt;nid&#45;22&#45;ampin&#45;27</title>
<path fill="none" stroke="#333333" d="M555.18,-642.08C613.14,-646.88 692.79,-653.06 763,-657 1035.14,-672.26 1361.62,-680.92 1485.49,-683.85"/>
<polygon fill="#333333" stroke="#333333" points="1485.71,-687.36 1495.79,-684.1 1485.88,-680.36 1485.71,-687.36"/>
</g>
<!-- nid&#45;23&#45;ampin&#45;27 -->
<g id="node50" class="node">
<title>nid&#45;23&#45;ampin&#45;27</title>
<polygon fill="none" stroke="#c8c8c8" points="1620.88,-295 1495.8,-318 1495.8,-272 1620.88,-295"/>
<text text-anchor="middle" x="1537.49" y="-291.3" font-family="Times,serif" font-size="14.00">3 (0x1b)</text>
</g>
<!-- nid&#45;1b&#45;out&#45;&gt;nid&#45;23&#45;ampin&#45;27 -->
<g id="edge59" class="edge">
<title>nid&#45;1b&#45;out&#45;&gt;nid&#45;23&#45;ampin&#45;27</title>
<path fill="none" stroke="#333333" d="M555.24,-638.43C741.66,-645.65 1186.84,-659.22 1246.3,-627 1387.19,-550.66 1319.89,-425.49 1446.3,-327 1457.8,-318.04 1472,-311.47 1485.71,-306.69"/>
<polygon fill="#333333" stroke="#333333" points="1487.11,-309.92 1495.56,-303.53 1484.97,-303.26 1487.11,-309.92"/>
</g>
<!-- nid&#45;1d&#45;out -->
<g id="node22" class="node">
<title>nid&#45;1d&#45;out</title>
<polygon fill="none" stroke="green" points="547,-151 398,-151 398,-83 547,-83 547,-151"/>
<text text-anchor="middle" x="472.5" y="-135.8" font-family="Times,serif" font-size="14.00">0x1d</text>
<text text-anchor="middle" x="472.5" y="-120.8" font-family="Times,serif" font-size="14.00">[N/A] Other at Ext N/A</text>
<text text-anchor="middle" x="472.5" y="-105.8" font-family="Times,serif" font-size="14.00">Mono</text>
<text text-anchor="middle" x="472.5" y="-90.8" font-family="Times,serif" font-size="14.00">IN</text>
</g>
<!-- nid&#45;1d&#45;out&#45;&gt;nid&#45;0b&#45;ampin&#45;29 -->
<g id="edge16" class="edge">
<title>nid&#45;1d&#45;out&#45;&gt;nid&#45;0b&#45;ampin&#45;29</title>
<path fill="none" stroke="#333333" d="M541.18,-151.21C548.58,-155.12 555.97,-159.1 563,-163 651.62,-212.13 752.79,-273.73 809.21,-308.6"/>
<polygon fill="#333333" stroke="#333333" points="807.53,-311.68 817.87,-313.96 811.21,-305.73 807.53,-311.68"/>
</g>
<!-- nid&#45;22&#45;ampin&#45;29 -->
<g id="node45" class="node">
<title>nid&#45;22&#45;ampin&#45;29</title>
<polygon fill="none" stroke="#c8c8c8" points="1620.88,-429 1495.8,-452 1495.8,-406 1620.88,-429"/>
<text text-anchor="middle" x="1537.49" y="-425.3" font-family="Times,serif" font-size="14.00">4 (0x1d)</text>
</g>
<!-- nid&#45;1d&#45;out&#45;&gt;nid&#45;22&#45;ampin&#45;29 -->
<g id="edge48" class="edge">
<title>nid&#45;1d&#45;out&#45;&gt;nid&#45;22&#45;ampin&#45;29</title>
<path fill="none" stroke="#333333" d="M547.04,-116.12C688.66,-117.06 1006.42,-131.98 1246.3,-238 1349.41,-283.57 1348.26,-338.35 1446.3,-394 1458.64,-401.01 1472.66,-407.2 1485.91,-412.35"/>
<polygon fill="#333333" stroke="#333333" points="1484.79,-415.67 1495.38,-415.92 1487.26,-409.12 1484.79,-415.67"/>
</g>
<!-- nid&#45;23&#45;ampin&#45;29 -->
<g id="node51" class="node">
<title>nid&#45;23&#45;ampin&#45;29</title>
<polygon fill="none" stroke="#c8c8c8" points="1620.88,-39 1495.8,-62 1495.8,-16 1620.88,-39"/>
<text text-anchor="middle" x="1537.49" y="-35.3" font-family="Times,serif" font-size="14.00">4 (0x1d)</text>
</g>
<!-- nid&#45;1d&#45;out&#45;&gt;nid&#45;23&#45;ampin&#45;29 -->
<g id="edge60" class="edge">
<title>nid&#45;1d&#45;out&#45;&gt;nid&#45;23&#45;ampin&#45;29</title>
<path fill="none" stroke="#333333" d="M547.4,-111.58C750.42,-96.68 1313,-55.4 1485.53,-42.74"/>
<polygon fill="#333333" stroke="#333333" points="1485.89,-46.22 1495.61,-42 1485.38,-39.24 1485.89,-46.22"/>
</g>
<!-- nid&#45;0c -->
<g id="node23" class="node">
<title>nid&#45;0c</title>
<polygon fill="none" stroke="black" points="1921.56,-964 1900.35,-995.05 1857.94,-995.05 1836.73,-964 1857.94,-932.95 1900.35,-932.95 1921.56,-964"/>
<text text-anchor="middle" x="1879.14" y="-967.8" font-family="Times,serif" font-size="14.00">0x0c</text>
<text text-anchor="middle" x="1879.14" y="-952.8" font-family="Times,serif" font-size="14.00">Stereo</text>
</g>
<!-- nid&#45;14&#45;in -->
<g id="node34" class="node">
<title>nid&#45;14&#45;in</title>
<polygon fill="none" stroke="green" points="2304.6,-1090 2137.6,-1090 2137.6,-1022 2304.6,-1022 2304.6,-1090"/>
<text text-anchor="middle" x="2221.1" y="-1074.8" font-family="Times,serif" font-size="14.00">0x14</text>
<text text-anchor="middle" x="2221.1" y="-1059.8" font-family="Times,serif" font-size="14.00">[Fixed] Speaker at Int N/A</text>
<text text-anchor="middle" x="2221.1" y="-1044.8" font-family="Times,serif" font-size="14.00">Stereo</text>
<text text-anchor="middle" x="2221.1" y="-1029.8" font-family="Times,serif" font-size="14.00">OUT EAPD Detect</text>
</g>
<!-- nid&#45;0c&#45;&gt;nid&#45;14&#45;in -->
<g id="edge29" class="edge">
<title>nid&#45;0c&#45;&gt;nid&#45;14&#45;in</title>
<path fill="none" stroke="#333333" d="M1915.24,-973.5C1964.91,-986.94 2057.43,-1011.98 2127.58,-1030.96"/>
<polygon fill="#333333" stroke="#333333" points="2126.75,-1034.36 2137.32,-1033.6 2128.58,-1027.61 2126.75,-1034.36"/>
</g>
<!-- nid&#45;1b&#45;in -->
<g id="node36" class="node">
<title>nid&#45;1b&#45;in</title>
<polygon fill="none" stroke="green" points="2303.6,-998 2138.6,-998 2138.6,-930 2303.6,-930 2303.6,-998"/>
<text text-anchor="middle" x="2221.1" y="-982.8" font-family="Times,serif" font-size="14.00">0x1b</text>
<text text-anchor="middle" x="2221.1" y="-967.8" font-family="Times,serif" font-size="14.00">[N/A] Speaker at Ext Rear</text>
<text text-anchor="middle" x="2221.1" y="-952.8" font-family="Times,serif" font-size="14.00">Stereo</text>
<text text-anchor="middle" x="2221.1" y="-937.8" font-family="Times,serif" font-size="14.00">IN OUT HP Detect</text>
</g>
<!-- nid&#45;0c&#45;&gt;nid&#45;1b&#45;in -->
<g id="edge33" class="edge">
<title>nid&#45;0c&#45;&gt;nid&#45;1b&#45;in</title>
<path fill="none" stroke="#333333" d="M1921.83,-964C1972.93,-964 2061.01,-964 2128.25,-964"/>
<polygon fill="#333333" stroke="#333333" points="2128.43,-967.5 2138.43,-964 2128.43,-960.5 2128.43,-967.5"/>
</g>
<!-- nid&#45;21&#45;in -->
<g id="node40" class="node">
<title>nid&#45;21&#45;in</title>
<polygon fill="none" stroke="green" points="2300.6,-906 2141.6,-906 2141.6,-838 2300.6,-838 2300.6,-906"/>
<text text-anchor="middle" x="2221.1" y="-890.8" font-family="Times,serif" font-size="14.00">0x21</text>
<text text-anchor="middle" x="2221.1" y="-875.8" font-family="Times,serif" font-size="14.00">[Jack] HP Out at Ext Left</text>
<text text-anchor="middle" x="2221.1" y="-860.8" font-family="Times,serif" font-size="14.00">Stereo</text>
<text text-anchor="middle" x="2221.1" y="-845.8" font-family="Times,serif" font-size="14.00">OUT HP Detect</text>
</g>
<!-- nid&#45;0c&#45;&gt;nid&#45;21&#45;in -->
<g id="edge36" class="edge">
<title>nid&#45;0c&#45;&gt;nid&#45;21&#45;in</title>
<path fill="none" stroke="gray" stroke-dasharray="5,2" d="M1915.24,-954.5C1965.88,-940.8 2061.07,-915.04 2131.67,-895.93"/>
<polygon fill="gray" stroke="gray" points="2132.72,-899.27 2141.46,-893.28 2130.9,-892.52 2132.72,-899.27"/>
</g>
<!-- nid&#45;0c&#45;ampin&#45;2&#45;&gt;nid&#45;0c -->
<g id="edge17" class="edge">
<title>nid&#45;0c&#45;ampin&#45;2&#45;&gt;nid&#45;0c</title>
<path fill="none" stroke="#0000ff" d="M1583.25,-1010.02C1648.95,-999.76 1770.7,-980.77 1835.3,-970.69"/>
<polygon fill="#0000ff" stroke="#0000ff" points="1835.94,-972.36 1840.61,-969.86 1835.4,-968.9 1835.94,-972.36"/>
</g>
<!-- nid&#45;0c&#45;ampin&#45;11&#45;&gt;nid&#45;0c -->
<g id="edge18" class="edge">
<title>nid&#45;0c&#45;ampin&#45;11&#45;&gt;nid&#45;0c</title>
<path fill="none" stroke="#c8c8c8" d="M1608.87,-955.28C1675.83,-957.45 1774.63,-960.65 1832.08,-962.51"/>
<polygon fill="#c8c8c8" stroke="#c8c8c8" points="1832.12,-964.26 1837.17,-962.67 1832.23,-960.76 1832.12,-964.26"/>
</g>
<!-- nid&#45;0d -->
<g id="node26" class="node">
<title>nid&#45;0d</title>
<polygon fill="none" stroke="black" points="1921.56,-872 1900.35,-903.05 1857.94,-903.05 1836.73,-872 1857.94,-840.95 1900.35,-840.95 1921.56,-872"/>
<text text-anchor="middle" x="1879.14" y="-875.8" font-family="Times,serif" font-size="14.00">0x0d</text>
<text text-anchor="middle" x="1879.14" y="-860.8" font-family="Times,serif" font-size="14.00">Stereo</text>
</g>
<!-- nid&#45;0f&#45;ampin&#45;13 -->
<g id="node30" class="node">
<title>nid&#45;0f&#45;ampin&#45;13</title>
<polygon fill="none" stroke="#0000ff" points="2304.49,-783 2179.41,-806 2179.41,-760 2304.49,-783"/>
<text text-anchor="middle" x="2221.1" y="-779.3" font-family="Times,serif" font-size="14.00">0 (0x0d)</text>
</g>
<!-- nid&#45;0d&#45;&gt;nid&#45;0f&#45;ampin&#45;13 -->
<g id="edge26" class="edge">
<title>nid&#45;0d&#45;&gt;nid&#45;0f&#45;ampin&#45;13</title>
<path fill="none" stroke="#333333" d="M1915.56,-862.73C1976.1,-846.88 2099.68,-814.53 2169.37,-796.28"/>
<polygon fill="#333333" stroke="#333333" points="2170.46,-799.61 2179.25,-793.7 2168.69,-792.84 2170.46,-799.61"/>
</g>
<!-- nid&#45;0d&#45;&gt;nid&#45;1b&#45;in -->
<g id="edge34" class="edge">
<title>nid&#45;0d&#45;&gt;nid&#45;1b&#45;in</title>
<path fill="none" stroke="gray" stroke-dasharray="5,2" d="M1915.24,-881.5C1965.15,-895 2058.34,-920.22 2128.61,-939.24"/>
<polygon fill="gray" stroke="gray" points="2127.8,-942.65 2138.36,-941.88 2129.62,-935.89 2127.8,-942.65"/>
</g>
<!-- nid&#45;0d&#45;&gt;nid&#45;21&#45;in -->
<g id="edge37" class="edge">
<title>nid&#45;0d&#45;&gt;nid&#45;21&#45;in</title>
<path fill="none" stroke="#333333" d="M1921.83,-872C1973.69,-872 2063.63,-872 2131.23,-872"/>
<polygon fill="#333333" stroke="#333333" points="2131.45,-875.5 2141.45,-872 2131.45,-868.5 2131.45,-875.5"/>
</g>
<!-- nid&#45;0d&#45;ampin&#45;3&#45;&gt;nid&#45;0d -->
<g id="edge21" class="edge">
<title>nid&#45;0d&#45;ampin&#45;3&#45;&gt;nid&#45;0d</title>
<path fill="none" stroke="#0000ff" d="M1608.87,-880.72C1675.83,-878.55 1774.63,-875.35 1832.08,-873.49"/>
<polygon fill="#0000ff" stroke="#0000ff" points="1832.23,-875.24 1837.17,-873.33 1832.12,-871.74 1832.23,-875.24"/>
</g>
<!-- nid&#45;0d&#45;ampin&#45;11&#45;&gt;nid&#45;0d -->
<g id="edge22" class="edge">
<title>nid&#45;0d&#45;ampin&#45;11&#45;&gt;nid&#45;0d</title>
<path fill="none" stroke="#c8c8c8" d="M1583.25,-825.98C1648.95,-836.24 1770.7,-855.23 1835.3,-865.31"/>
<polygon fill="#c8c8c8" stroke="#c8c8c8" points="1835.4,-867.1 1840.61,-866.14 1835.94,-863.64 1835.4,-867.1"/>
</g>
<!-- nid&#45;0f -->
<g id="node29" class="node">
<title>nid&#45;0f</title>
<polygon fill="none" stroke="black" points="2602.08,-783 2581.75,-814.05 2541.1,-814.05 2520.78,-783 2541.1,-751.95 2581.75,-751.95 2602.08,-783"/>
<text text-anchor="middle" x="2561.43" y="-786.8" font-family="Times,serif" font-size="14.00">0x0f</text>
<text text-anchor="middle" x="2561.43" y="-771.8" font-family="Times,serif" font-size="14.00">Mono</text>
</g>
<!-- nid&#45;17&#45;in -->
<g id="node35" class="node">
<title>nid&#45;17&#45;in</title>
<polygon fill="none" stroke="green" points="2986.25,-817 2818.25,-817 2818.25,-749 2986.25,-749 2986.25,-817"/>
<text text-anchor="middle" x="2902.25" y="-801.8" font-family="Times,serif" font-size="14.00">0x17</text>
<text text-anchor="middle" x="2902.25" y="-786.8" font-family="Times,serif" font-size="14.00">[N/A] Line Out at Ext N/A</text>
<text text-anchor="middle" x="2902.25" y="-771.8" font-family="Times,serif" font-size="14.00">Mono</text>
<text text-anchor="middle" x="2902.25" y="-756.8" font-family="Times,serif" font-size="14.00">OUT</text>
</g>
<!-- nid&#45;0f&#45;&gt;nid&#45;17&#45;in -->
<g id="edge30" class="edge">
<title>nid&#45;0f&#45;&gt;nid&#45;17&#45;in</title>
<path fill="none" stroke="#333333" d="M2602.29,-783C2652.46,-783 2740.22,-783 2807.72,-783"/>
<polygon fill="#333333" stroke="#333333" points="2807.95,-786.5 2817.95,-783 2807.95,-779.5 2807.95,-786.5"/>
</g>
<!-- nid&#45;0f&#45;ampin&#45;13&#45;&gt;nid&#45;0f -->
<g id="edge25" class="edge">
<title>nid&#45;0f&#45;ampin&#45;13&#45;&gt;nid&#45;0f</title>
<path fill="none" stroke="#0000ff" d="M2304.43,-783C2370.94,-783 2462.02,-783 2515.7,-783"/>
<polygon fill="#0000ff" stroke="#0000ff" points="2515.77,-784.75 2520.77,-783 2515.77,-781.25 2515.77,-784.75"/>
</g>
<!-- nid&#45;11 -->
<g id="node31" class="node">
<title>nid&#45;11</title>
<ellipse fill="none" stroke="red" cx="854.19" cy="-1095" rx="36.54" ry="26.74"/>
<text text-anchor="middle" x="854.19" y="-1098.8" font-family="Times,serif" font-size="14.00">0x11</text>
<text text-anchor="middle" x="854.19" y="-1083.8" font-family="Times,serif" font-size="14.00">Stereo</text>
</g>
<!-- nid&#45;11&#45;ampin -->
<g id="node32" class="node">
<title>nid&#45;11&#45;ampin</title>
<polygon fill="none" stroke="#3232f1" points="499.5,-1095 459,-1113 459,-1077 499.5,-1095"/>
</g>
<!-- nid&#45;11&#45;ampin&#45;&gt;nid&#45;11 -->
<g id="edge27" class="edge">
<title>nid&#45;11&#45;ampin&#45;&gt;nid&#45;11</title>
<path fill="none" stroke="#3232f1" d="M499.6,-1095C564.52,-1095 733.7,-1095 812.15,-1095"/>
<polygon fill="#3232f1" stroke="#3232f1" points="812.18,-1096.75 817.18,-1095 812.18,-1093.25 812.18,-1096.75"/>
</g>
<!-- nid&#45;12&#45;out -->
<g id="node33" class="node">
<title>nid&#45;12&#45;out</title>
<polygon fill="none" stroke="green" points="174,-1129 16,-1129 16,-1061 174,-1061 174,-1129"/>
<text text-anchor="middle" x="95" y="-1113.8" font-family="Times,serif" font-size="14.00">0x12</text>
<text text-anchor="middle" x="95" y="-1098.8" font-family="Times,serif" font-size="14.00">[Fixed] Mic at Int ATAPI</text>
<text text-anchor="middle" x="95" y="-1083.8" font-family="Times,serif" font-size="14.00">Stereo</text>
<text text-anchor="middle" x="95" y="-1068.8" font-family="Times,serif" font-size="14.00">IN</text>
</g>
<!-- nid&#45;12&#45;out&#45;&gt;nid&#45;11&#45;ampin -->
<g id="edge28" class="edge">
<title>nid&#45;12&#45;out&#45;&gt;nid&#45;11&#45;ampin</title>
<path fill="none" stroke="#333333" d="M174.26,-1095C260.95,-1095 395.5,-1095 448.72,-1095"/>
<polygon fill="#333333" stroke="#333333" points="448.8,-1098.5 458.8,-1095 448.8,-1091.5 448.8,-1098.5"/>
</g>
<!-- nid&#45;1b&#45;ampout -->
<g id="node37" class="node">
<title>nid&#45;1b&#45;ampout</title>
<polygon fill="none" stroke="#c8c8c8" points="2588.43,-964 2547.93,-982 2547.93,-946 2588.43,-964"/>
</g>
<!-- nid&#45;1b&#45;in&#45;&gt;nid&#45;1b&#45;ampout -->
<g id="edge31" class="edge">
<title>nid&#45;1b&#45;in&#45;&gt;nid&#45;1b&#45;ampout</title>
<path fill="none" stroke="#c8c8c8" d="M2304,-964C2383.52,-964 2498.46,-964 2542.41,-964"/>
<polygon fill="#c8c8c8" stroke="#c8c8c8" points="2542.65,-965.75 2547.65,-964 2542.65,-962.25 2542.65,-965.75"/>
</g>
<!-- nid&#45;1b&#45;ampin -->
<g id="node38" class="node">
<title>nid&#45;1b&#45;ampin</title>
<polygon fill="none" stroke="#0000ff" points="122,-635 81.5,-653 81.5,-617 122,-635"/>
</g>
<!-- nid&#45;1b&#45;ampin&#45;&gt;nid&#45;1b&#45;out -->
<g id="edge32" class="edge">
<title>nid&#45;1b&#45;ampin&#45;&gt;nid&#45;1b&#45;out</title>
<path fill="none" stroke="#0000ff" d="M122.11,-635C175.59,-635 299.73,-635 384.67,-635"/>
<polygon fill="#0000ff" stroke="#0000ff" points="384.7,-636.75 389.7,-635 384.7,-633.25 384.7,-636.75"/>
</g>
<!-- nid&#45;22&#45;ampin&#45;24&#45;&gt;nid&#45;22 -->
<g id="edge38" class="edge">
<title>nid&#45;22&#45;ampin&#45;24&#45;&gt;nid&#45;22</title>
<path fill="none" stroke="#c8c8c8" d="M1571.06,-502.2C1633.61,-519.88 1770.34,-558.53 1838.24,-577.72"/>
<polygon fill="#c8c8c8" stroke="#c8c8c8" points="1838.12,-579.51 1843.41,-579.18 1839.07,-576.14 1838.12,-579.51"/>
</g>
<!-- nid&#45;22&#45;ampin&#45;25&#45;&gt;nid&#45;22 -->
<g id="edge39" class="edge">
<title>nid&#45;22&#45;ampin&#45;25&#45;&gt;nid&#45;22</title>
<path fill="none" stroke="#c8c8c8" d="M1593.06,-562.14C1660,-568.45 1772.18,-579.02 1833.97,-584.84"/>
<polygon fill="#c8c8c8" stroke="#c8c8c8" points="1833.92,-586.59 1839.06,-585.32 1834.25,-583.11 1833.92,-586.59"/>
</g>
<!-- nid&#45;22&#45;ampin&#45;26&#45;&gt;nid&#45;22 -->
<g id="edge40" class="edge">
<title>nid&#45;22&#45;ampin&#45;26&#45;&gt;nid&#45;22</title>
<path fill="none" stroke="#c8c8c8" d="M1566.52,-738.8C1582.53,-732.8 1602.9,-724.86 1620.69,-717 1701.62,-681.21 1793.93,-633.61 1843.04,-607.71"/>
<polygon fill="#c8c8c8" stroke="#c8c8c8" points="1844.05,-609.16 1847.66,-605.28 1842.42,-606.06 1844.05,-609.16"/>
</g>
<!-- nid&#45;22&#45;ampin&#45;27&#45;&gt;nid&#45;22 -->
<g id="edge41" class="edge">
<title>nid&#45;22&#45;ampin&#45;27&#45;&gt;nid&#45;22</title>
<path fill="none" stroke="#c8c8c8" d="M1571.06,-675.8C1633.61,-658.12 1770.34,-619.47 1838.24,-600.28"/>
<polygon fill="#c8c8c8" stroke="#c8c8c8" points="1839.07,-601.86 1843.41,-598.82 1838.12,-598.49 1839.07,-601.86"/>
</g>
<!-- nid&#45;22&#45;ampin&#45;29&#45;&gt;nid&#45;22 -->
<g id="edge42" class="edge">
<title>nid&#45;22&#45;ampin&#45;29&#45;&gt;nid&#45;22</title>
<path fill="none" stroke="#c8c8c8" d="M1566.52,-439.2C1582.53,-445.2 1602.9,-453.14 1620.69,-461 1701.62,-496.79 1793.93,-544.39 1843.04,-570.29"/>
<polygon fill="#c8c8c8" stroke="#c8c8c8" points="1842.42,-571.94 1847.66,-572.72 1844.05,-568.84 1842.42,-571.94"/>
</g>
<!-- nid&#45;22&#45;ampin&#45;11&#45;&gt;nid&#45;22 -->
<g id="edge43" class="edge">
<title>nid&#45;22&#45;ampin&#45;11&#45;&gt;nid&#45;22</title>
<path fill="none" stroke="#c8c8c8" d="M1593.06,-615.86C1660,-609.55 1772.18,-598.98 1833.97,-593.16"/>
<polygon fill="#c8c8c8" stroke="#c8c8c8" points="1834.25,-594.89 1839.06,-592.68 1833.92,-591.41 1834.25,-594.89"/>
</g>
<!-- nid&#45;23&#45;ampin&#45;24&#45;&gt;nid&#45;23 -->
<g id="edge50" class="edge">
<title>nid&#45;23&#45;ampin&#45;24&#45;&gt;nid&#45;23</title>
<path fill="none" stroke="#c8c8c8" d="M1571.06,-112.2C1633.61,-129.88 1770.34,-168.53 1838.24,-187.72"/>
<polygon fill="#c8c8c8" stroke="#c8c8c8" points="1838.12,-189.51 1843.41,-189.18 1839.07,-186.14 1838.12,-189.51"/>
</g>
<!-- nid&#45;23&#45;ampin&#45;25&#45;&gt;nid&#45;23 -->
<g id="edge51" class="edge">
<title>nid&#45;23&#45;ampin&#45;25&#45;&gt;nid&#45;23</title>
<path fill="none" stroke="#c8c8c8" d="M1593.06,-172.14C1660,-178.45 1772.18,-189.02 1833.97,-194.84"/>
<polygon fill="#c8c8c8" stroke="#c8c8c8" points="1833.92,-196.59 1839.06,-195.32 1834.25,-193.11 1833.92,-196.59"/>
</g>
<!-- nid&#45;23&#45;ampin&#45;26&#45;&gt;nid&#45;23 -->
<g id="edge52" class="edge">
<title>nid&#45;23&#45;ampin&#45;26&#45;&gt;nid&#45;23</title>
<path fill="none" stroke="#c8c8c8" d="M1566.52,-348.8C1582.53,-342.8 1602.9,-334.86 1620.69,-327 1701.62,-291.21 1793.93,-243.61 1843.04,-217.71"/>
<polygon fill="#c8c8c8" stroke="#c8c8c8" points="1844.05,-219.16 1847.66,-215.28 1842.42,-216.06 1844.05,-219.16"/>
</g>
<!-- nid&#45;23&#45;ampin&#45;27&#45;&gt;nid&#45;23 -->
<g id="edge53" class="edge">
<title>nid&#45;23&#45;ampin&#45;27&#45;&gt;nid&#45;23</title>
<path fill="none" stroke="#c8c8c8" d="M1571.06,-285.8C1633.61,-268.12 1770.34,-229.47 1838.24,-210.28"/>
<polygon fill="#c8c8c8" stroke="#c8c8c8" points="1839.07,-211.86 1843.41,-208.82 1838.12,-208.49 1839.07,-211.86"/>
</g>
<!-- nid&#45;23&#45;ampin&#45;29&#45;&gt;nid&#45;23 -->
<g id="edge54" class="edge">
<title>nid&#45;23&#45;ampin&#45;29&#45;&gt;nid&#45;23</title>
<path fill="none" stroke="#c8c8c8" d="M1566.52,-49.2C1582.53,-55.2 1602.9,-63.14 1620.69,-71 1701.62,-106.79 1793.93,-154.39 1843.04,-180.29"/>
<polygon fill="#c8c8c8" stroke="#c8c8c8" points="1842.42,-181.94 1847.66,-182.72 1844.05,-178.84 1842.42,-181.94"/>
</g>
<!-- nid&#45;23&#45;ampin&#45;11&#45;&gt;nid&#45;23 -->
<g id="edge55" class="edge">
<title>nid&#45;23&#45;ampin&#45;11&#45;&gt;nid&#45;23</title>
<path fill="none" stroke="#c8c8c8" d="M1593.06,-225.86C1660,-219.55 1772.18,-208.98 1833.97,-203.16"/>
<polygon fill="#c8c8c8" stroke="#c8c8c8" points="1834.25,-204.89 1839.06,-202.68 1833.92,-201.41 1834.25,-204.89"/>
</g>
</g>
</svg>
